<?xml version="1.0" encoding="iso-8859-1"?>
<!-- Generator: Adobe Illustrator 19.0.0, SVG Export Plug-In . SVG Version: 6.00 Build 0)  -->
<svg version="1.1" id="Layer_1" xmlns="http://www.w3.org/2000/svg" xmlns:xlink="http://www.w3.org/1999/xlink" x="0px" y="0px"
	 viewBox="0 0 512 512" style="enable-background:new 0 0 512 512;" xml:space="preserve">
<rect style="fill:#FFD55C;" width="512" height="512"/>
<g>
	<rect x="96.786" y="133.325" style="fill:#2B4457;" width="58.621" height="245.35"/>
	<path style="fill:#FFFFFF;" d="M140.736,340.073c0,8.09-6.559,14.651-14.643,14.651c-8.09,0-14.646-6.561-14.646-14.651
		c0-8.079,6.556-14.633,14.646-14.633C134.18,325.44,140.736,331.994,140.736,340.073z"/>
	<path style="fill:#213546;" d="M138.066,340.073c0,6.628-5.353,11.988-11.971,11.988c-6.612,0-11.983-5.361-11.983-11.988
		c0-6.61,5.371-11.976,11.983-11.976C132.71,328.097,138.066,333.463,138.066,340.073z"/>
	<path style="fill:#FFFFFF;" d="M143.114,298.212c0,1.795-1.475,3.274-3.284,3.274h-27.484c-1.805,0-3.267-1.48-3.267-3.274V152.102
		c0-1.8,1.464-3.267,3.267-3.267h27.484c1.81,0,3.284,1.467,3.284,3.267V298.212z"/>
	<g>
		<rect x="114.788" y="196.352" style="fill:#D9D8D7;" width="22.597" height="2.294"/>
		<rect x="114.788" y="210.099" style="fill:#D9D8D7;" width="22.597" height="2.289"/>
		<rect x="114.788" y="223.821" style="fill:#D9D8D7;" width="22.597" height="2.286"/>
		<rect x="114.788" y="237.568" style="fill:#D9D8D7;" width="22.597" height="2.289"/>
		<rect x="114.788" y="251.29" style="fill:#D9D8D7;" width="22.597" height="2.296"/>
		<rect x="114.788" y="265.037" style="fill:#D9D8D7;" width="22.597" height="2.281"/>
		<rect x="114.788" y="157.414" style="fill:#D9D8D7;" width="22.597" height="26.719"/>
		<rect x="114.788" y="279.552" style="fill:#D9D8D7;" width="22.597" height="13.358"/>
	</g>
	<rect x="155.407" y="133.325" style="fill:#FF6D3B;" width="58.627" height="245.35"/>
	<path style="fill:#FFFFFF;" d="M199.37,340.073c0,8.09-6.564,14.651-14.651,14.651c-8.087,0-14.651-6.561-14.651-14.651
		c0-8.079,6.564-14.633,14.651-14.633C192.804,325.44,199.37,331.994,199.37,340.073z"/>
	<path style="fill:#213546;" d="M196.698,340.073c0,6.628-5.366,11.988-11.978,11.988c-6.612,0-11.983-5.361-11.983-11.988
		c0-6.61,5.371-11.976,11.983-11.976C191.332,328.097,196.698,333.463,196.698,340.073z"/>
	<path style="fill:#FFFFFF;" d="M201.741,298.212c0,1.795-1.48,3.274-3.279,3.274H170.98c-1.818,0-3.282-1.48-3.282-3.274V152.102
		c0-1.8,1.464-3.267,3.282-3.267h27.479c1.8,0,3.279,1.467,3.279,3.267v146.109H201.741z"/>
	<g>
		<rect x="173.414" y="196.352" style="fill:#D9D8D7;" width="22.592" height="2.294"/>
		<rect x="173.414" y="210.099" style="fill:#D9D8D7;" width="22.592" height="2.289"/>
		<rect x="173.414" y="223.821" style="fill:#D9D8D7;" width="22.592" height="2.286"/>
		<rect x="173.414" y="237.568" style="fill:#D9D8D7;" width="22.592" height="2.289"/>
		<rect x="173.414" y="251.29" style="fill:#D9D8D7;" width="22.592" height="2.296"/>
		<rect x="173.414" y="265.037" style="fill:#D9D8D7;" width="22.592" height="2.281"/>
		<rect x="173.414" y="157.414" style="fill:#D9D8D7;" width="22.592" height="26.719"/>
		<rect x="173.414" y="279.552" style="fill:#D9D8D7;" width="22.592" height="13.358"/>
	</g>
	<rect x="214.042" y="133.325" style="fill:#2B4457;" width="58.621" height="245.35"/>
	<path style="fill:#FFFFFF;" d="M257.992,340.073c0,8.09-6.561,14.651-14.648,14.651c-8.084,0-14.651-6.561-14.651-14.651
		c0-8.079,6.564-14.633,14.651-14.633S257.992,331.994,257.992,340.073z"/>
	<path style="fill:#213546;" d="M255.322,340.073c0,6.628-5.353,11.988-11.976,11.988c-6.618,0-11.988-5.361-11.988-11.988
		c0-6.61,5.371-11.976,11.988-11.976C249.969,328.097,255.322,333.463,255.322,340.073z"/>
	<path style="fill:#FFFFFF;" d="M260.362,298.212c0,1.795-1.477,3.274-3.277,3.274h-27.484c-1.812,0-3.277-1.48-3.277-3.274V152.102
		c0-1.8,1.464-3.267,3.277-3.267h27.484c1.8,0,3.277,1.467,3.277,3.267V298.212z"/>
	<g>
		<rect x="232.038" y="196.352" style="fill:#D9D8D7;" width="22.592" height="2.294"/>
		<rect x="232.038" y="210.099" style="fill:#D9D8D7;" width="22.592" height="2.289"/>
		<rect x="232.038" y="223.821" style="fill:#D9D8D7;" width="22.592" height="2.286"/>
		<rect x="232.038" y="237.568" style="fill:#D9D8D7;" width="22.592" height="2.289"/>
		<rect x="232.038" y="251.29" style="fill:#D9D8D7;" width="22.592" height="2.296"/>
		<rect x="232.038" y="265.037" style="fill:#D9D8D7;" width="22.592" height="2.281"/>
		<rect x="232.038" y="157.414" style="fill:#D9D8D7;" width="22.592" height="26.719"/>
		<rect x="232.038" y="279.552" style="fill:#D9D8D7;" width="22.592" height="13.358"/>
	</g>
	<rect x="272.666" y="133.325" style="fill:#21D8DE;" width="58.624" height="245.35"/>
	<rect x="331.29" y="133.325" style="fill:#06B2B8;" width="83.942" height="245.35"/>
	<path style="fill:#FFFFFF;" d="M316.618,340.073c0,8.09-6.564,14.651-14.643,14.651c-8.084,0-14.656-6.561-14.656-14.651
		c0-8.079,6.569-14.633,14.656-14.633C310.052,325.44,316.618,331.994,316.618,340.073z"/>
	<path style="fill:#213546;" d="M313.948,340.073c0,6.628-5.358,11.988-11.973,11.988c-6.623,0-11.983-5.361-11.983-11.988
		c0-6.61,5.361-11.976,11.983-11.976C308.59,328.097,313.948,333.463,313.948,340.073z"/>
	<path style="fill:#FFFFFF;" d="M318.986,298.212c0,1.795-1.472,3.274-3.274,3.274h-27.484c-1.818,0-3.279-1.48-3.279-3.274V152.102
		c0-1.8,1.462-3.267,3.279-3.267h27.484c1.802,0,3.274,1.467,3.274,3.267V298.212z"/>
	<g>
		<rect x="290.662" y="196.352" style="fill:#D9D8D7;" width="22.589" height="2.294"/>
		<rect x="290.662" y="210.099" style="fill:#D9D8D7;" width="22.589" height="2.289"/>
		<rect x="290.662" y="223.821" style="fill:#D9D8D7;" width="22.589" height="2.286"/>
		<rect x="290.662" y="237.568" style="fill:#D9D8D7;" width="22.589" height="2.289"/>
		<rect x="290.662" y="251.29" style="fill:#D9D8D7;" width="22.589" height="2.296"/>
		<rect x="290.662" y="265.037" style="fill:#D9D8D7;" width="22.589" height="2.281"/>
		<rect x="290.662" y="157.414" style="fill:#D9D8D7;" width="22.589" height="26.719"/>
		<rect x="290.662" y="279.552" style="fill:#D9D8D7;" width="22.589" height="13.358"/>
	</g>
</g>
<g>
</g>
<g>
</g>
<g>
</g>
<g>
</g>
<g>
</g>
<g>
</g>
<g>
</g>
<g>
</g>
<g>
</g>
<g>
</g>
<g>
</g>
<g>
</g>
<g>
</g>
<g>
</g>
<g>
</g>
</svg>
