<?xml version="1.0" ?><!DOCTYPE svg  PUBLIC '-//W3C//DTD SVG 1.1//EN'  'http://www.w3.org/Graphics/SVG/1.1/DTD/svg11.dtd'><svg enable-background="new 0 0 128 128" id="Слой_1" version="1.1" viewBox="0 0 128 128" xml:space="preserve" xmlns="http://www.w3.org/2000/svg" xmlns:xlink="http://www.w3.org/1999/xlink"><g><g><g><g><path d="M117,39.5l-20-23l-20-6H51l-20,6l-20,23l14,13l5-5l0,65h0c11.3,3.3,22,5,33.7,5h0.6      c11.8,0,22.4-1.7,33.7-5h0l0-65l5,5L117,39.5z" fill="#84D3E5"/></g></g></g><g><g><g><g><polygon fill="#FFFFFF" points="38,18.5 59,10.5 51,10.5 31,16.5 11,39.5 25,52.5 28.8,48.6 19,39.5      "/></g></g></g><g><g><g><path d="M38,112.5l0-51.4c0-3.6-1.9-6.8-5-8.6l0,0l-3-2.8l0,62.8h0c11.3,3.3,18.1,5,8,2L38,112.5z" fill="#FFFFFF"/></g></g></g></g><g><g><g><path d="M77,10.5v3c0,7.2-5.8,13-13,13h0c-7.2,0-13-5.8-13-13v-3" fill="#FFFFFF"/></g></g></g><g><g><g><g><path d="M56,13.5v-3h-5v3c0,7.2,5.8,13,13,13h0c0.9,0,1.7-0.1,2.5-0.2C60.5,25.1,56,19.8,56,13.5z" fill="#FFFFFF"/></g></g></g></g><g><g><g><path d="M64.3,119h-0.6c-11.6,0-22.4-1.6-34.1-5.1c-0.6-0.2-1.1-0.8-1.1-1.4V51.1l-2.4,2.4      c-0.6,0.6-1.5,0.6-2.1,0l-14-13c-0.6-0.6-0.6-1.5-0.1-2.1l20-23c0.2-0.2,0.4-0.4,0.7-0.5l20-6C50.7,9,50.9,9,51,9h26      c0.1,0,0.3,0,0.4,0.1l20,6c0.3,0.1,0.5,0.2,0.7,0.5l20,23c0.5,0.6,0.5,1.5-0.1,2.1l-14,13c-0.6,0.5-1.5,0.5-2.1,0l-2.4-2.4v61.4      c0,0.7-0.4,1.3-1.1,1.4C86.7,117.4,75.8,119,64.3,119z M31.5,111.4c11,3.2,21.3,4.6,32.2,4.6h0.6c10.9,0,21.2-1.5,32.2-4.6V47.5      c0-0.6,0.4-1.2,0.9-1.4c0.6-0.2,1.2-0.1,1.6,0.3l4,4l11.9-11L96.2,17.8L76.8,12H51.2l-19.4,5.8L13.1,39.4l11.9,11l4-4      c0.4-0.4,1.1-0.6,1.6-0.3c0.6,0.2,0.9,0.8,0.9,1.4V111.4z" fill="#62355C"/></g></g></g><g><g><g><g><path d="M99,49.5c-0.3,0-0.5-0.1-0.7-0.3c-0.4-0.4-0.4-1,0.1-1.4l0.4-0.3c0.4-0.4,1-0.4,1.4,0.1       c0.4,0.4,0.4,1-0.1,1.4l-0.4,0.3C99.5,49.4,99.2,49.5,99,49.5z" fill="#62355C"/></g></g></g><g><g><g><path d="M102.2,46.6c-0.3,0-0.5-0.1-0.7-0.3c-0.4-0.4-0.4-1,0.1-1.4l0.7-0.6c0.4-0.4,1-0.4,1.4,0.1       c0.4,0.4,0.4,1-0.1,1.4l-0.7,0.6C102.7,46.5,102.4,46.6,102.2,46.6z M105.7,43.3c-0.3,0-0.5-0.1-0.7-0.3       c-0.4-0.4-0.4-1,0.1-1.4l0.7-0.6c0.4-0.4,1-0.4,1.4,0.1c0.4,0.4,0.4,1-0.1,1.4l-0.7,0.6C106.1,43.2,105.9,43.3,105.7,43.3z        M109.1,40.1c-0.3,0-0.5-0.1-0.7-0.3c-0.4-0.4-0.4-1,0.1-1.4l0.7-0.6c0.4-0.4,1-0.4,1.4,0.1c0.4,0.4,0.4,1-0.1,1.4l-0.7,0.6       C109.6,40,109.4,40.1,109.1,40.1z" fill="#62355C"/></g></g></g><g><g><g><path d="M112.6,36.8c-0.3,0-0.5-0.1-0.7-0.3c-0.4-0.4-0.4-1,0.1-1.4l0.4-0.3c0.4-0.4,1-0.4,1.4,0.1       c0.4,0.4,0.4,1-0.1,1.4l-0.4,0.3C113.1,36.7,112.9,36.8,112.6,36.8z" fill="#62355C"/></g></g></g></g><g><g><g><g><path d="M15.4,36.8c-0.2,0-0.5-0.1-0.7-0.3l-0.4-0.3c-0.4-0.4-0.4-1-0.1-1.4c0.4-0.4,1-0.4,1.4-0.1l0.4,0.3       c0.4,0.4,0.4,1,0.1,1.4C15.9,36.7,15.6,36.8,15.4,36.8z" fill="#62355C"/></g></g></g><g><g><g><path d="M25.8,46.6c-0.2,0-0.5-0.1-0.7-0.3l-0.7-0.6c-0.4-0.4-0.4-1-0.1-1.4c0.4-0.4,1-0.4,1.4-0.1l0.7,0.6       c0.4,0.4,0.4,1,0.1,1.4C26.4,46.5,26.1,46.6,25.8,46.6z M22.3,43.3c-0.2,0-0.5-0.1-0.7-0.3L21,42.4c-0.4-0.4-0.4-1-0.1-1.4       c0.4-0.4,1-0.4,1.4-0.1l0.7,0.6c0.4,0.4,0.4,1,0.1,1.4C22.9,43.2,22.6,43.3,22.3,43.3z M18.9,40.1c-0.2,0-0.5-0.1-0.7-0.3       l-0.7-0.6c-0.4-0.4-0.4-1-0.1-1.4c0.4-0.4,1-0.4,1.4-0.1l0.7,0.6c0.4,0.4,0.4,1,0.1,1.4C19.4,40,19.1,40.1,18.9,40.1z" fill="#62355C"/></g></g></g><g><g><g><path d="M29,49.5c-0.2,0-0.5-0.1-0.7-0.3L28,48.9c-0.4-0.4-0.4-1-0.1-1.4c0.4-0.4,1-0.4,1.4-0.1l0.4,0.3       c0.4,0.4,0.4,1,0.1,1.4C29.5,49.4,29.3,49.5,29,49.5z" fill="#62355C"/></g></g></g></g><g><g><g><path d="M64,28c-8,0-14.5-6.5-14.5-14.5v-3C49.5,9.7,50.2,9,51,9s1.5,0.7,1.5,1.5v3C52.5,19.8,57.7,25,64,25      c6.3,0,11.5-5.2,11.5-11.5v-3C75.5,9.7,76.2,9,77,9s1.5,0.7,1.5,1.5v3C78.5,21.5,72,28,64,28z" fill="#62355C"/></g></g></g><g><g><g><circle cx="83.2" cy="40.5" fill="#FFFFFF" r="5"/></g></g></g><g><g><g><path d="M117,39.5l-20-23l-20-6H51l-20,6l-20,23l14,13l5-5l0,65h0c11.3,3.3,22,5,33.7,5h0.6      c11.8,0,22.4-1.7,33.7-5h0l0-65l5,5L117,39.5z" fill="#84D3E5"/></g></g></g><g><g><g><g><polygon fill="#FFFFFF" points="38,18.5 59,10.5 51,10.5 31,16.5 11,39.5 25,52.5 28.8,48.6 19,39.5      "/></g></g></g><g><g><g><path d="M38,112.5l0-51.4c0-3.6-1.9-6.8-5-8.6l0,0l-3-2.8l0,62.8h0c11.3,3.3,18.1,5,8,2L38,112.5z" fill="#FFFFFF"/></g></g></g></g><g><g><g><path d="M77,10.5v3c0,7.2-5.8,13-13,13h0c-7.2,0-13-5.8-13-13v-3" fill="#FFFFFF"/></g></g></g><g><g><g><g><path d="M56,13.5v-3h-5v3c0,7.2,5.8,13,13,13h0c0.9,0,1.7-0.1,2.5-0.2C60.5,25.1,56,19.8,56,13.5z" fill="#FFFFFF"/></g></g></g></g><g><g><g><path d="M64.3,119h-0.6c-11.6,0-22.4-1.6-34.1-5.1c-0.6-0.2-1.1-0.8-1.1-1.4V51.1l-2.4,2.4      c-0.6,0.6-1.5,0.6-2.1,0l-14-13c-0.6-0.6-0.6-1.5-0.1-2.1l20-23c0.2-0.2,0.4-0.4,0.7-0.5l20-6C50.7,9,50.9,9,51,9h26      c0.1,0,0.3,0,0.4,0.1l20,6c0.3,0.1,0.5,0.2,0.7,0.5l20,23c0.5,0.6,0.5,1.5-0.1,2.1l-14,13c-0.6,0.5-1.5,0.5-2.1,0l-2.4-2.4v61.4      c0,0.7-0.4,1.3-1.1,1.4C86.7,117.4,75.8,119,64.3,119z M31.5,111.4c11,3.2,21.3,4.6,32.2,4.6h0.6c10.9,0,21.2-1.5,32.2-4.6V47.5      c0-0.6,0.4-1.2,0.9-1.4c0.6-0.2,1.2-0.1,1.6,0.3l4,4l11.9-11L96.2,17.8L76.8,12H51.2l-19.4,5.8L13.1,39.4l11.9,11l4-4      c0.4-0.4,1.1-0.6,1.6-0.3c0.6,0.2,0.9,0.8,0.9,1.4V111.4z" fill="#62355C"/></g></g></g><g><g><g><g><path d="M99,49.5c-0.3,0-0.5-0.1-0.7-0.3c-0.4-0.4-0.4-1,0.1-1.4l0.4-0.3c0.4-0.4,1-0.4,1.4,0.1       c0.4,0.4,0.4,1-0.1,1.4l-0.4,0.3C99.5,49.4,99.2,49.5,99,49.5z" fill="#62355C"/></g></g></g><g><g><g><path d="M102.2,46.6c-0.3,0-0.5-0.1-0.7-0.3c-0.4-0.4-0.4-1,0.1-1.4l0.7-0.6c0.4-0.4,1-0.4,1.4,0.1       c0.4,0.4,0.4,1-0.1,1.4l-0.7,0.6C102.7,46.5,102.4,46.6,102.2,46.6z M105.7,43.3c-0.3,0-0.5-0.1-0.7-0.3       c-0.4-0.4-0.4-1,0.1-1.4l0.7-0.6c0.4-0.4,1-0.4,1.4,0.1c0.4,0.4,0.4,1-0.1,1.4l-0.7,0.6C106.1,43.2,105.9,43.3,105.7,43.3z        M109.1,40.1c-0.3,0-0.5-0.1-0.7-0.3c-0.4-0.4-0.4-1,0.1-1.4l0.7-0.6c0.4-0.4,1-0.4,1.4,0.1c0.4,0.4,0.4,1-0.1,1.4l-0.7,0.6       C109.6,40,109.4,40.1,109.1,40.1z" fill="#62355C"/></g></g></g><g><g><g><path d="M112.6,36.8c-0.3,0-0.5-0.1-0.7-0.3c-0.4-0.4-0.4-1,0.1-1.4l0.4-0.3c0.4-0.4,1-0.4,1.4,0.1       c0.4,0.4,0.4,1-0.1,1.4l-0.4,0.3C113.1,36.7,112.9,36.8,112.6,36.8z" fill="#62355C"/></g></g></g></g><g><g><g><g><path d="M15.4,36.8c-0.2,0-0.5-0.1-0.7-0.3l-0.4-0.3c-0.4-0.4-0.4-1-0.1-1.4c0.4-0.4,1-0.4,1.4-0.1l0.4,0.3       c0.4,0.4,0.4,1,0.1,1.4C15.9,36.7,15.6,36.8,15.4,36.8z" fill="#62355C"/></g></g></g><g><g><g><path d="M25.8,46.6c-0.2,0-0.5-0.1-0.7-0.3l-0.7-0.6c-0.4-0.4-0.4-1-0.1-1.4c0.4-0.4,1-0.4,1.4-0.1l0.7,0.6       c0.4,0.4,0.4,1,0.1,1.4C26.4,46.5,26.1,46.6,25.8,46.6z M22.3,43.3c-0.2,0-0.5-0.1-0.7-0.3L21,42.4c-0.4-0.4-0.4-1-0.1-1.4       c0.4-0.4,1-0.4,1.4-0.1l0.7,0.6c0.4,0.4,0.4,1,0.1,1.4C22.9,43.2,22.6,43.3,22.3,43.3z M18.9,40.1c-0.2,0-0.5-0.1-0.7-0.3       l-0.7-0.6c-0.4-0.4-0.4-1-0.1-1.4c0.4-0.4,1-0.4,1.4-0.1l0.7,0.6c0.4,0.4,0.4,1,0.1,1.4C19.4,40,19.1,40.1,18.9,40.1z" fill="#62355C"/></g></g></g><g><g><g><path d="M29,49.5c-0.2,0-0.5-0.1-0.7-0.3L28,48.9c-0.4-0.4-0.4-1-0.1-1.4c0.4-0.4,1-0.4,1.4-0.1l0.4,0.3       c0.4,0.4,0.4,1,0.1,1.4C29.5,49.4,29.3,49.5,29,49.5z" fill="#62355C"/></g></g></g></g><g><g><g><path d="M64,28c-8,0-14.5-6.5-14.5-14.5v-3C49.5,9.7,50.2,9,51,9s1.5,0.7,1.5,1.5v3C52.5,19.8,57.7,25,64,25      c6.3,0,11.5-5.2,11.5-11.5v-3C75.5,9.7,76.2,9,77,9s1.5,0.7,1.5,1.5v3C78.5,21.5,72,28,64,28z" fill="#62355C"/></g></g></g><g><g><g><circle cx="83.2" cy="40.5" fill="#FFFFFF" r="5"/></g></g></g></g></svg>